<mxfile host="Electron" modified="2023-12-20T09:31:02.694Z" agent="Mozilla/5.0 (Windows NT 10.0; Win64; x64) AppleWebKit/537.36 (KHTML, like Gecko) draw.io/22.0.3 Chrome/114.0.5735.289 Electron/25.8.4 Safari/537.36" etag="xPx8XHfEtyPI752pdlCH" version="22.0.3" type="device">
  <diagram name="Page-1" id="DLJ1HT0TbZ3krAwsRnta">
    <mxGraphModel dx="2026" dy="1171" grid="0" gridSize="10" guides="1" tooltips="1" connect="1" arrows="1" fold="1" page="0" pageScale="1" pageWidth="850" pageHeight="1100" math="0" shadow="0">
      <root>
        <mxCell id="0" />
        <mxCell id="1" parent="0" />
        <mxCell id="t6MeOBT6qKdHq0I3uMll-1" value="" style="ellipse;html=1;shape=startState;fillColor=#000000;strokeColor=#ff0000;" vertex="1" parent="1">
          <mxGeometry x="571" y="77" width="30" height="30" as="geometry" />
        </mxCell>
        <mxCell id="t6MeOBT6qKdHq0I3uMll-2" style="edgeStyle=orthogonalEdgeStyle;rounded=0;orthogonalLoop=1;jettySize=auto;html=1;exitX=0.5;exitY=1;exitDx=0;exitDy=0;entryX=0.5;entryY=0;entryDx=0;entryDy=0;fillColor=#f8cecc;strokeColor=#b85450;" edge="1" parent="1" source="t6MeOBT6qKdHq0I3uMll-3" target="t6MeOBT6qKdHq0I3uMll-25">
          <mxGeometry relative="1" as="geometry" />
        </mxCell>
        <mxCell id="t6MeOBT6qKdHq0I3uMll-3" value="Create issue" style="rounded=1;whiteSpace=wrap;html=1;arcSize=40;fontColor=#000000;fillColor=#ffffc0;strokeColor=#ff0000;" vertex="1" parent="1">
          <mxGeometry x="523.88" y="445" width="120" height="40" as="geometry" />
        </mxCell>
        <mxCell id="t6MeOBT6qKdHq0I3uMll-4" value="All checks Successful?" style="rhombus;whiteSpace=wrap;html=1;fontColor=#000000;fillColor=#ffffc0;strokeColor=#ff0000;" vertex="1" parent="1">
          <mxGeometry x="529.88" y="350" width="108" height="60" as="geometry" />
        </mxCell>
        <mxCell id="t6MeOBT6qKdHq0I3uMll-5" style="edgeStyle=orthogonalEdgeStyle;rounded=0;orthogonalLoop=1;jettySize=auto;html=1;exitX=0.5;exitY=1;exitDx=0;exitDy=0;entryX=0.5;entryY=0;entryDx=0;entryDy=0;fillColor=#f8cecc;strokeColor=#b85450;" edge="1" parent="1" source="t6MeOBT6qKdHq0I3uMll-6">
          <mxGeometry relative="1" as="geometry">
            <mxPoint x="583.88" y="650" as="targetPoint" />
          </mxGeometry>
        </mxCell>
        <mxCell id="t6MeOBT6qKdHq0I3uMll-6" value="Add issue to project" style="rounded=1;whiteSpace=wrap;html=1;arcSize=40;fontColor=#000000;fillColor=#ffffc0;strokeColor=#ff0000;" vertex="1" parent="1">
          <mxGeometry x="516.38" y="580" width="135" height="40" as="geometry" />
        </mxCell>
        <mxCell id="t6MeOBT6qKdHq0I3uMll-7" style="edgeStyle=orthogonalEdgeStyle;rounded=0;orthogonalLoop=1;jettySize=auto;html=1;exitX=0.5;exitY=1;exitDx=0;exitDy=0;fillColor=#f8cecc;strokeColor=#b85450;" edge="1" parent="1" target="t6MeOBT6qKdHq0I3uMll-18">
          <mxGeometry relative="1" as="geometry">
            <mxPoint x="585.1350000000001" y="180" as="sourcePoint" />
          </mxGeometry>
        </mxCell>
        <mxCell id="t6MeOBT6qKdHq0I3uMll-8" style="edgeStyle=orthogonalEdgeStyle;rounded=0;orthogonalLoop=1;jettySize=auto;html=1;exitX=0.5;exitY=1;exitDx=0;exitDy=0;entryX=0.5;entryY=0;entryDx=0;entryDy=0;fillColor=#f8cecc;strokeColor=#b85450;" edge="1" parent="1" source="t6MeOBT6qKdHq0I3uMll-9" target="t6MeOBT6qKdHq0I3uMll-27">
          <mxGeometry relative="1" as="geometry" />
        </mxCell>
        <mxCell id="t6MeOBT6qKdHq0I3uMll-9" value="Merge into master branch" style="rounded=1;whiteSpace=wrap;html=1;arcSize=40;fontColor=#000000;fillColor=#ffffc0;strokeColor=#ff0000;" vertex="1" parent="1">
          <mxGeometry x="524.51" y="650" width="120" height="40" as="geometry" />
        </mxCell>
        <mxCell id="t6MeOBT6qKdHq0I3uMll-10" value="Yes" style="text;html=1;align=center;verticalAlign=middle;resizable=0;points=[];autosize=1;strokeColor=none;fillColor=none;" vertex="1" parent="1">
          <mxGeometry x="590" y="410" width="40" height="30" as="geometry" />
        </mxCell>
        <mxCell id="t6MeOBT6qKdHq0I3uMll-11" value="No" style="text;html=1;align=center;verticalAlign=middle;resizable=0;points=[];autosize=1;strokeColor=none;fillColor=none;" vertex="1" parent="1">
          <mxGeometry x="637.88" y="350" width="40" height="30" as="geometry" />
        </mxCell>
        <mxCell id="t6MeOBT6qKdHq0I3uMll-12" style="edgeStyle=orthogonalEdgeStyle;rounded=0;orthogonalLoop=1;jettySize=auto;html=1;exitX=0;exitY=0.5;exitDx=0;exitDy=0;entryX=1;entryY=0.5;entryDx=0;entryDy=0;fillColor=#f8cecc;strokeColor=#b85450;" edge="1" parent="1" source="t6MeOBT6qKdHq0I3uMll-13" target="t6MeOBT6qKdHq0I3uMll-18">
          <mxGeometry relative="1" as="geometry" />
        </mxCell>
        <mxCell id="t6MeOBT6qKdHq0I3uMll-13" value="Fix problem" style="rounded=1;whiteSpace=wrap;html=1;arcSize=40;fontColor=#000000;fillColor=#ffffc0;strokeColor=#ff0000;" vertex="1" parent="1">
          <mxGeometry x="708.88" y="210" width="100" height="40" as="geometry" />
        </mxCell>
        <mxCell id="t6MeOBT6qKdHq0I3uMll-14" style="edgeStyle=orthogonalEdgeStyle;rounded=0;orthogonalLoop=1;jettySize=auto;html=1;exitX=0.5;exitY=1;exitDx=0;exitDy=0;entryX=0.5;entryY=0;entryDx=0;entryDy=0;fillColor=#f8cecc;strokeColor=#b85450;" edge="1" parent="1" source="t6MeOBT6qKdHq0I3uMll-15" target="t6MeOBT6qKdHq0I3uMll-4">
          <mxGeometry relative="1" as="geometry" />
        </mxCell>
        <mxCell id="t6MeOBT6qKdHq0I3uMll-15" value="Create new pull request" style="rounded=1;whiteSpace=wrap;html=1;arcSize=40;fontColor=#000000;fillColor=#ffffc0;strokeColor=#ff0000;" vertex="1" parent="1">
          <mxGeometry x="523.88" y="280" width="120" height="40" as="geometry" />
        </mxCell>
        <mxCell id="t6MeOBT6qKdHq0I3uMll-16" style="edgeStyle=orthogonalEdgeStyle;rounded=0;orthogonalLoop=1;jettySize=auto;html=1;fillColor=#f8cecc;strokeColor=#b85450;entryX=0.5;entryY=1;entryDx=0;entryDy=0;" edge="1" parent="1" target="t6MeOBT6qKdHq0I3uMll-13">
          <mxGeometry relative="1" as="geometry">
            <mxPoint x="758.88" y="225" as="targetPoint" />
            <mxPoint x="638.88" y="380" as="sourcePoint" />
            <Array as="points">
              <mxPoint x="638.88" y="380" />
              <mxPoint x="758.88" y="380" />
            </Array>
          </mxGeometry>
        </mxCell>
        <mxCell id="t6MeOBT6qKdHq0I3uMll-17" style="edgeStyle=orthogonalEdgeStyle;rounded=0;orthogonalLoop=1;jettySize=auto;html=1;exitX=0.5;exitY=1;exitDx=0;exitDy=0;fillColor=#f8cecc;strokeColor=#b85450;" edge="1" parent="1" source="t6MeOBT6qKdHq0I3uMll-18">
          <mxGeometry relative="1" as="geometry">
            <mxPoint x="584.88" y="280" as="targetPoint" />
          </mxGeometry>
        </mxCell>
        <mxCell id="t6MeOBT6qKdHq0I3uMll-18" value="Change code according to problem" style="rounded=1;whiteSpace=wrap;html=1;arcSize=40;fontColor=#000000;fillColor=#ffffc0;strokeColor=#ff0000;" vertex="1" parent="1">
          <mxGeometry x="524.51" y="210" width="121.25" height="40" as="geometry" />
        </mxCell>
        <mxCell id="t6MeOBT6qKdHq0I3uMll-19" value="" style="ellipse;html=1;shape=endState;fillColor=#000000;strokeColor=#ff0000;" vertex="1" parent="1">
          <mxGeometry x="568.88" y="800" width="30" height="30" as="geometry" />
        </mxCell>
        <mxCell id="t6MeOBT6qKdHq0I3uMll-20" value="" style="shape=callout;whiteSpace=wrap;html=1;perimeter=calloutPerimeter;rotation=-90;" vertex="1" parent="1">
          <mxGeometry x="491" y="22" width="35" height="140" as="geometry" />
        </mxCell>
        <mxCell id="t6MeOBT6qKdHq0I3uMll-21" value="" style="shape=callout;whiteSpace=wrap;html=1;perimeter=calloutPerimeter;rotation=-90;" vertex="1" parent="1">
          <mxGeometry x="489.5" y="750" width="35" height="130" as="geometry" />
        </mxCell>
        <mxCell id="t6MeOBT6qKdHq0I3uMll-22" value="Start/Entry point" style="text;html=1;align=center;verticalAlign=middle;resizable=0;points=[];autosize=1;strokeColor=none;fillColor=none;" vertex="1" parent="1">
          <mxGeometry x="440" y="77" width="110" height="30" as="geometry" />
        </mxCell>
        <mxCell id="t6MeOBT6qKdHq0I3uMll-23" value="Stop/Exit point" style="text;html=1;align=center;verticalAlign=middle;resizable=0;points=[];autosize=1;strokeColor=none;fillColor=none;" vertex="1" parent="1">
          <mxGeometry x="442" y="800" width="100" height="30" as="geometry" />
        </mxCell>
        <mxCell id="t6MeOBT6qKdHq0I3uMll-24" style="edgeStyle=orthogonalEdgeStyle;rounded=0;orthogonalLoop=1;jettySize=auto;html=1;exitX=0.5;exitY=1;exitDx=0;exitDy=0;entryX=0.5;entryY=0;entryDx=0;entryDy=0;fillColor=#f8cecc;strokeColor=#b85450;" edge="1" parent="1" source="t6MeOBT6qKdHq0I3uMll-25" target="t6MeOBT6qKdHq0I3uMll-6">
          <mxGeometry relative="1" as="geometry" />
        </mxCell>
        <mxCell id="t6MeOBT6qKdHq0I3uMll-25" value="Add relevant &lt;br&gt;labels if any" style="rounded=1;whiteSpace=wrap;html=1;arcSize=40;fontColor=#000000;fillColor=#ffffc0;strokeColor=#ff0000;" vertex="1" parent="1">
          <mxGeometry x="523.88" y="510" width="120" height="40" as="geometry" />
        </mxCell>
        <mxCell id="t6MeOBT6qKdHq0I3uMll-26" style="edgeStyle=orthogonalEdgeStyle;rounded=0;orthogonalLoop=1;jettySize=auto;html=1;exitX=0.5;exitY=1;exitDx=0;exitDy=0;fillColor=#f8cecc;strokeColor=#b85450;" edge="1" parent="1" source="t6MeOBT6qKdHq0I3uMll-27" target="t6MeOBT6qKdHq0I3uMll-19">
          <mxGeometry relative="1" as="geometry" />
        </mxCell>
        <mxCell id="t6MeOBT6qKdHq0I3uMll-27" value="Close issue" style="rounded=1;whiteSpace=wrap;html=1;arcSize=40;fontColor=#000000;fillColor=#ffffc0;strokeColor=#ff0000;" vertex="1" parent="1">
          <mxGeometry x="523.88" y="730" width="120" height="40" as="geometry" />
        </mxCell>
        <mxCell id="t6MeOBT6qKdHq0I3uMll-28" value="" style="ellipse;html=1;shape=startState;fillColor=#000000;strokeColor=#ff0000;" vertex="1" parent="1">
          <mxGeometry x="161" y="80" width="30" height="30" as="geometry" />
        </mxCell>
        <mxCell id="t6MeOBT6qKdHq0I3uMll-29" style="edgeStyle=orthogonalEdgeStyle;rounded=0;orthogonalLoop=1;jettySize=auto;html=1;exitX=0.5;exitY=1;exitDx=0;exitDy=0;entryX=0.5;entryY=0;entryDx=0;entryDy=0;fillColor=#f8cecc;strokeColor=#b85450;" edge="1" parent="1" source="t6MeOBT6qKdHq0I3uMll-30" target="t6MeOBT6qKdHq0I3uMll-56">
          <mxGeometry relative="1" as="geometry" />
        </mxCell>
        <mxCell id="t6MeOBT6qKdHq0I3uMll-30" value="Create issue" style="rounded=1;whiteSpace=wrap;html=1;arcSize=40;fontColor=#000000;fillColor=#ffffc0;strokeColor=#ff0000;" vertex="1" parent="1">
          <mxGeometry x="113.13" y="212" width="120" height="40" as="geometry" />
        </mxCell>
        <mxCell id="t6MeOBT6qKdHq0I3uMll-31" style="edgeStyle=orthogonalEdgeStyle;rounded=0;orthogonalLoop=1;jettySize=auto;html=1;exitX=0.5;exitY=1;exitDx=0;exitDy=0;entryX=0.5;entryY=0;entryDx=0;entryDy=0;fillColor=#f8cecc;strokeColor=#b85450;" edge="1" parent="1" source="t6MeOBT6qKdHq0I3uMll-32" target="t6MeOBT6qKdHq0I3uMll-40">
          <mxGeometry relative="1" as="geometry" />
        </mxCell>
        <mxCell id="t6MeOBT6qKdHq0I3uMll-32" value="All checks Successful?" style="rhombus;whiteSpace=wrap;html=1;fontColor=#000000;fillColor=#ffffc0;strokeColor=#ff0000;" vertex="1" parent="1">
          <mxGeometry x="119.13" y="707" width="108" height="60" as="geometry" />
        </mxCell>
        <mxCell id="t6MeOBT6qKdHq0I3uMll-33" style="edgeStyle=orthogonalEdgeStyle;rounded=0;orthogonalLoop=1;jettySize=auto;html=1;exitX=0.5;exitY=1;exitDx=0;exitDy=0;entryX=0.5;entryY=0;entryDx=0;entryDy=0;fillColor=#f8cecc;strokeColor=#b85450;" edge="1" parent="1" source="t6MeOBT6qKdHq0I3uMll-34" target="t6MeOBT6qKdHq0I3uMll-36">
          <mxGeometry relative="1" as="geometry" />
        </mxCell>
        <mxCell id="t6MeOBT6qKdHq0I3uMll-34" value="Add issue to project" style="rounded=1;whiteSpace=wrap;html=1;arcSize=40;fontColor=#000000;fillColor=#ffffc0;strokeColor=#ff0000;" vertex="1" parent="1">
          <mxGeometry x="105.63" y="347" width="135" height="40" as="geometry" />
        </mxCell>
        <mxCell id="t6MeOBT6qKdHq0I3uMll-35" style="edgeStyle=orthogonalEdgeStyle;rounded=0;orthogonalLoop=1;jettySize=auto;html=1;exitX=0.5;exitY=1;exitDx=0;exitDy=0;entryX=0.5;entryY=0;entryDx=0;entryDy=0;fillColor=#f8cecc;strokeColor=#b85450;" edge="1" parent="1" target="t6MeOBT6qKdHq0I3uMll-38">
          <mxGeometry relative="1" as="geometry">
            <mxPoint x="173.13" y="452" as="sourcePoint" />
          </mxGeometry>
        </mxCell>
        <mxCell id="t6MeOBT6qKdHq0I3uMll-36" value="Set status to backlog" style="rounded=1;whiteSpace=wrap;html=1;arcSize=40;fontColor=#000000;fillColor=#ffffc0;strokeColor=#ff0000;" vertex="1" parent="1">
          <mxGeometry x="113.13" y="417" width="120" height="40" as="geometry" />
        </mxCell>
        <mxCell id="t6MeOBT6qKdHq0I3uMll-37" style="edgeStyle=orthogonalEdgeStyle;rounded=0;orthogonalLoop=1;jettySize=auto;html=1;exitX=0.5;exitY=1;exitDx=0;exitDy=0;fillColor=#f8cecc;strokeColor=#b85450;" edge="1" parent="1" source="t6MeOBT6qKdHq0I3uMll-38" target="t6MeOBT6qKdHq0I3uMll-49">
          <mxGeometry relative="1" as="geometry" />
        </mxCell>
        <mxCell id="t6MeOBT6qKdHq0I3uMll-38" value="Under development, set status e.g. in progress etc." style="rounded=1;whiteSpace=wrap;html=1;arcSize=40;fontColor=#000000;fillColor=#ffffc0;strokeColor=#ff0000;" vertex="1" parent="1">
          <mxGeometry x="98.75999999999999" y="482" width="151.25" height="55" as="geometry" />
        </mxCell>
        <mxCell id="t6MeOBT6qKdHq0I3uMll-39" style="edgeStyle=orthogonalEdgeStyle;rounded=0;orthogonalLoop=1;jettySize=auto;html=1;exitX=0.5;exitY=1;exitDx=0;exitDy=0;entryX=0.5;entryY=0;entryDx=0;entryDy=0;fillColor=#f8cecc;strokeColor=#b85450;" edge="1" parent="1" source="t6MeOBT6qKdHq0I3uMll-40" target="t6MeOBT6qKdHq0I3uMll-58">
          <mxGeometry relative="1" as="geometry" />
        </mxCell>
        <mxCell id="t6MeOBT6qKdHq0I3uMll-40" value="Merge into master branch" style="rounded=1;whiteSpace=wrap;html=1;arcSize=40;fontColor=#000000;fillColor=#ffffc0;strokeColor=#ff0000;" vertex="1" parent="1">
          <mxGeometry x="113.75999999999999" y="797" width="120" height="40" as="geometry" />
        </mxCell>
        <mxCell id="t6MeOBT6qKdHq0I3uMll-41" value="Yes" style="text;html=1;align=center;verticalAlign=middle;resizable=0;points=[];autosize=1;strokeColor=none;fillColor=none;" vertex="1" parent="1">
          <mxGeometry x="177.13" y="764" width="40" height="30" as="geometry" />
        </mxCell>
        <mxCell id="t6MeOBT6qKdHq0I3uMll-42" value="No" style="text;html=1;align=center;verticalAlign=middle;resizable=0;points=[];autosize=1;strokeColor=none;fillColor=none;" vertex="1" parent="1">
          <mxGeometry x="227.13" y="707" width="40" height="30" as="geometry" />
        </mxCell>
        <mxCell id="t6MeOBT6qKdHq0I3uMll-43" style="edgeStyle=orthogonalEdgeStyle;rounded=0;orthogonalLoop=1;jettySize=auto;html=1;exitX=0;exitY=0.5;exitDx=0;exitDy=0;entryX=1;entryY=0.5;entryDx=0;entryDy=0;fillColor=#f8cecc;strokeColor=#b85450;" edge="1" parent="1" source="t6MeOBT6qKdHq0I3uMll-44" target="t6MeOBT6qKdHq0I3uMll-49">
          <mxGeometry relative="1" as="geometry" />
        </mxCell>
        <mxCell id="t6MeOBT6qKdHq0I3uMll-44" value="Fix problem" style="rounded=1;whiteSpace=wrap;html=1;arcSize=40;fontColor=#000000;fillColor=#ffffc0;strokeColor=#ff0000;" vertex="1" parent="1">
          <mxGeometry x="298.13" y="567" width="100" height="40" as="geometry" />
        </mxCell>
        <mxCell id="t6MeOBT6qKdHq0I3uMll-45" style="edgeStyle=orthogonalEdgeStyle;rounded=0;orthogonalLoop=1;jettySize=auto;html=1;exitX=0.5;exitY=1;exitDx=0;exitDy=0;entryX=0.5;entryY=0;entryDx=0;entryDy=0;fillColor=#f8cecc;strokeColor=#b85450;" edge="1" parent="1" source="t6MeOBT6qKdHq0I3uMll-46" target="t6MeOBT6qKdHq0I3uMll-32">
          <mxGeometry relative="1" as="geometry" />
        </mxCell>
        <mxCell id="t6MeOBT6qKdHq0I3uMll-46" value="Create new pull request" style="rounded=1;whiteSpace=wrap;html=1;arcSize=40;fontColor=#000000;fillColor=#ffffc0;strokeColor=#ff0000;" vertex="1" parent="1">
          <mxGeometry x="113.13" y="637" width="120" height="40" as="geometry" />
        </mxCell>
        <mxCell id="t6MeOBT6qKdHq0I3uMll-47" style="edgeStyle=orthogonalEdgeStyle;rounded=0;orthogonalLoop=1;jettySize=auto;html=1;fillColor=#f8cecc;strokeColor=#b85450;entryX=0.5;entryY=1;entryDx=0;entryDy=0;" edge="1" parent="1" target="t6MeOBT6qKdHq0I3uMll-44">
          <mxGeometry relative="1" as="geometry">
            <mxPoint x="348.13" y="582" as="targetPoint" />
            <mxPoint x="228.13" y="737" as="sourcePoint" />
            <Array as="points">
              <mxPoint x="228.13" y="737" />
              <mxPoint x="348.13" y="737" />
            </Array>
          </mxGeometry>
        </mxCell>
        <mxCell id="t6MeOBT6qKdHq0I3uMll-48" style="edgeStyle=orthogonalEdgeStyle;rounded=0;orthogonalLoop=1;jettySize=auto;html=1;exitX=0.5;exitY=1;exitDx=0;exitDy=0;fillColor=#f8cecc;strokeColor=#b85450;" edge="1" parent="1" source="t6MeOBT6qKdHq0I3uMll-49">
          <mxGeometry relative="1" as="geometry">
            <mxPoint x="174.13" y="637" as="targetPoint" />
          </mxGeometry>
        </mxCell>
        <mxCell id="t6MeOBT6qKdHq0I3uMll-49" value="Change code according to issue&amp;nbsp;" style="rounded=1;whiteSpace=wrap;html=1;arcSize=40;fontColor=#000000;fillColor=#ffffc0;strokeColor=#ff0000;" vertex="1" parent="1">
          <mxGeometry x="113.75999999999999" y="567" width="121.25" height="40" as="geometry" />
        </mxCell>
        <mxCell id="t6MeOBT6qKdHq0I3uMll-50" value="" style="ellipse;html=1;shape=endState;fillColor=#000000;strokeColor=#ff0000;" vertex="1" parent="1">
          <mxGeometry x="158.13" y="947" width="30" height="30" as="geometry" />
        </mxCell>
        <mxCell id="t6MeOBT6qKdHq0I3uMll-51" value="" style="shape=callout;whiteSpace=wrap;html=1;perimeter=calloutPerimeter;rotation=-90;" vertex="1" parent="1">
          <mxGeometry x="81" y="25" width="35" height="140" as="geometry" />
        </mxCell>
        <mxCell id="t6MeOBT6qKdHq0I3uMll-52" value="" style="shape=callout;whiteSpace=wrap;html=1;perimeter=calloutPerimeter;rotation=-90;" vertex="1" parent="1">
          <mxGeometry x="77.5" y="897" width="35" height="130" as="geometry" />
        </mxCell>
        <mxCell id="t6MeOBT6qKdHq0I3uMll-53" value="Start/Entry point" style="text;html=1;align=center;verticalAlign=middle;resizable=0;points=[];autosize=1;strokeColor=none;fillColor=none;" vertex="1" parent="1">
          <mxGeometry x="30" y="80" width="110" height="30" as="geometry" />
        </mxCell>
        <mxCell id="t6MeOBT6qKdHq0I3uMll-54" value="Stop/Exit point" style="text;html=1;align=center;verticalAlign=middle;resizable=0;points=[];autosize=1;strokeColor=none;fillColor=none;" vertex="1" parent="1">
          <mxGeometry x="30" y="947" width="100" height="30" as="geometry" />
        </mxCell>
        <mxCell id="t6MeOBT6qKdHq0I3uMll-55" style="edgeStyle=orthogonalEdgeStyle;rounded=0;orthogonalLoop=1;jettySize=auto;html=1;exitX=0.5;exitY=1;exitDx=0;exitDy=0;entryX=0.5;entryY=0;entryDx=0;entryDy=0;fillColor=#f8cecc;strokeColor=#b85450;" edge="1" parent="1" source="t6MeOBT6qKdHq0I3uMll-56" target="t6MeOBT6qKdHq0I3uMll-34">
          <mxGeometry relative="1" as="geometry" />
        </mxCell>
        <mxCell id="t6MeOBT6qKdHq0I3uMll-56" value="Add relevant &lt;br&gt;labels if any" style="rounded=1;whiteSpace=wrap;html=1;arcSize=40;fontColor=#000000;fillColor=#ffffc0;strokeColor=#ff0000;" vertex="1" parent="1">
          <mxGeometry x="113.13" y="277" width="120" height="40" as="geometry" />
        </mxCell>
        <mxCell id="t6MeOBT6qKdHq0I3uMll-57" style="edgeStyle=orthogonalEdgeStyle;rounded=0;orthogonalLoop=1;jettySize=auto;html=1;exitX=0.5;exitY=1;exitDx=0;exitDy=0;fillColor=#f8cecc;strokeColor=#b85450;" edge="1" parent="1" source="t6MeOBT6qKdHq0I3uMll-58" target="t6MeOBT6qKdHq0I3uMll-50">
          <mxGeometry relative="1" as="geometry" />
        </mxCell>
        <mxCell id="t6MeOBT6qKdHq0I3uMll-58" value="Close issue" style="rounded=1;whiteSpace=wrap;html=1;arcSize=40;fontColor=#000000;fillColor=#ffffc0;strokeColor=#ff0000;" vertex="1" parent="1">
          <mxGeometry x="113.13" y="877" width="120" height="40" as="geometry" />
        </mxCell>
        <mxCell id="t6MeOBT6qKdHq0I3uMll-59" value="Find problem/error" style="rounded=1;whiteSpace=wrap;html=1;arcSize=40;fontColor=#000000;fillColor=#ffffc0;strokeColor=#ff0000;" vertex="1" parent="1">
          <mxGeometry x="525.76" y="140" width="120" height="40" as="geometry" />
        </mxCell>
        <mxCell id="t6MeOBT6qKdHq0I3uMll-60" style="edgeStyle=orthogonalEdgeStyle;rounded=0;orthogonalLoop=1;jettySize=auto;html=1;exitX=0.5;exitY=1;exitDx=0;exitDy=0;fillColor=#f8cecc;strokeColor=#b85450;entryX=0.5;entryY=0;entryDx=0;entryDy=0;" edge="1" parent="1" source="t6MeOBT6qKdHq0I3uMll-4" target="t6MeOBT6qKdHq0I3uMll-3">
          <mxGeometry relative="1" as="geometry">
            <mxPoint x="584.72" y="445" as="targetPoint" />
            <mxPoint x="584.72" y="415" as="sourcePoint" />
          </mxGeometry>
        </mxCell>
        <mxCell id="t6MeOBT6qKdHq0I3uMll-61" style="edgeStyle=orthogonalEdgeStyle;rounded=0;orthogonalLoop=1;jettySize=auto;html=1;exitX=0.5;exitY=1;exitDx=0;exitDy=0;fillColor=#f8cecc;strokeColor=#b85450;entryX=0.529;entryY=0.011;entryDx=0;entryDy=0;entryPerimeter=0;" edge="1" parent="1">
          <mxGeometry relative="1" as="geometry">
            <mxPoint x="586.0500000000001" y="104.56" as="sourcePoint" />
            <mxPoint x="585.83" y="140" as="targetPoint" />
          </mxGeometry>
        </mxCell>
        <mxCell id="t6MeOBT6qKdHq0I3uMll-62" value="Flow 1" style="rounded=0;whiteSpace=wrap;html=1;" vertex="1" parent="1">
          <mxGeometry x="122" y="15" width="120" height="35" as="geometry" />
        </mxCell>
        <mxCell id="t6MeOBT6qKdHq0I3uMll-63" value="Flow 2" style="rounded=0;whiteSpace=wrap;html=1;" vertex="1" parent="1">
          <mxGeometry x="523.88" y="15" width="120" height="35" as="geometry" />
        </mxCell>
        <mxCell id="t6MeOBT6qKdHq0I3uMll-64" style="edgeStyle=orthogonalEdgeStyle;rounded=0;orthogonalLoop=1;jettySize=auto;html=1;exitX=0.5;exitY=1;exitDx=0;exitDy=0;fillColor=#f8cecc;strokeColor=#b85450;" edge="1" parent="1">
          <mxGeometry relative="1" as="geometry">
            <mxPoint x="173.7650000000001" y="183" as="sourcePoint" />
            <mxPoint x="173.63" y="213" as="targetPoint" />
          </mxGeometry>
        </mxCell>
        <mxCell id="t6MeOBT6qKdHq0I3uMll-65" value="Find problem/error" style="rounded=1;whiteSpace=wrap;html=1;arcSize=40;fontColor=#000000;fillColor=#ffffc0;strokeColor=#ff0000;" vertex="1" parent="1">
          <mxGeometry x="114.38999999999999" y="143" width="120" height="40" as="geometry" />
        </mxCell>
        <mxCell id="t6MeOBT6qKdHq0I3uMll-66" style="edgeStyle=orthogonalEdgeStyle;rounded=0;orthogonalLoop=1;jettySize=auto;html=1;exitX=0.5;exitY=1;exitDx=0;exitDy=0;fillColor=#f8cecc;strokeColor=#b85450;entryX=0.529;entryY=0.011;entryDx=0;entryDy=0;entryPerimeter=0;" edge="1" parent="1">
          <mxGeometry relative="1" as="geometry">
            <mxPoint x="175.72000000000008" y="107.56" as="sourcePoint" />
            <mxPoint x="175.50000000000006" y="143" as="targetPoint" />
          </mxGeometry>
        </mxCell>
      </root>
    </mxGraphModel>
  </diagram>
</mxfile>
